<mxfile host="Electron" agent="Mozilla/5.0 (Macintosh; Intel Mac OS X 10_15_7) AppleWebKit/537.36 (KHTML, like Gecko) draw.io/24.7.17 Chrome/128.0.6613.36 Electron/32.0.1 Safari/537.36" version="24.7.17">
  <diagram name="Page-1" id="-H_mtQnk-PTXWXPvYvuk">
    <mxGraphModel dx="2318" dy="674" grid="1" gridSize="10" guides="1" tooltips="1" connect="1" arrows="1" fold="1" page="1" pageScale="1" pageWidth="1169" pageHeight="827" math="0" shadow="0">
      <root>
        <mxCell id="0" />
        <mxCell id="1" parent="0" />
        <mxCell id="K4MH_9X3WQAVXKmxXlGv-11" style="edgeStyle=orthogonalEdgeStyle;rounded=0;orthogonalLoop=1;jettySize=auto;html=1;entryX=1;entryY=0.25;entryDx=0;entryDy=0;" edge="1" parent="1" source="K4MH_9X3WQAVXKmxXlGv-2" target="K4MH_9X3WQAVXKmxXlGv-8">
          <mxGeometry relative="1" as="geometry" />
        </mxCell>
        <mxCell id="K4MH_9X3WQAVXKmxXlGv-2" value="" style="rounded=0;whiteSpace=wrap;html=1;" vertex="1" parent="1">
          <mxGeometry x="260" y="305" width="170" height="365" as="geometry" />
        </mxCell>
        <mxCell id="6hZJDgeNuYgbE0FGKjoH-42" value="&lt;p style=&quot;line-height: 100%;&quot;&gt;&lt;/p&gt;&lt;hr&gt;&lt;hr&gt;&lt;hr&gt;&lt;p&gt;&lt;/p&gt;" style="rounded=0;whiteSpace=wrap;html=1;dashed=1;" parent="1" vertex="1">
          <mxGeometry x="480" y="450" width="80" height="100" as="geometry" />
        </mxCell>
        <mxCell id="6hZJDgeNuYgbE0FGKjoH-29" value="&lt;p style=&quot;line-height: 100%;&quot;&gt;&lt;/p&gt;&lt;hr&gt;&lt;hr&gt;&lt;hr&gt;&lt;p&gt;&lt;/p&gt;" style="rounded=0;whiteSpace=wrap;html=1;dashed=1;" parent="1" vertex="1">
          <mxGeometry x="830" y="190" width="330" height="630" as="geometry" />
        </mxCell>
        <mxCell id="6hZJDgeNuYgbE0FGKjoH-1" value="" style="rounded=0;whiteSpace=wrap;html=1;" parent="1" vertex="1">
          <mxGeometry x="880" y="250" width="220" height="210" as="geometry" />
        </mxCell>
        <mxCell id="PJOXyjg3iWPA3-rZ3mkH-4" style="edgeStyle=orthogonalEdgeStyle;rounded=0;orthogonalLoop=1;jettySize=auto;html=1;" parent="1" target="PJOXyjg3iWPA3-rZ3mkH-3" edge="1">
          <mxGeometry relative="1" as="geometry">
            <mxPoint x="560" y="519" as="sourcePoint" />
          </mxGeometry>
        </mxCell>
        <mxCell id="zA23MoTUsTF4_91t8viU-3" value="pymongo-api" style="rounded=1;whiteSpace=wrap;html=1;" parent="1" vertex="1">
          <mxGeometry x="287" y="383.5" width="120" height="60" as="geometry" />
        </mxCell>
        <mxCell id="PJOXyjg3iWPA3-rZ3mkH-3" value="mongo&amp;nbsp;&lt;div&gt;router&lt;/div&gt;" style="rounded=0;whiteSpace=wrap;html=1;rotation=-91;" parent="1" vertex="1">
          <mxGeometry x="620" y="494" width="100" height="50" as="geometry" />
        </mxCell>
        <mxCell id="6hZJDgeNuYgbE0FGKjoH-2" value="" style="shape=cylinder3;whiteSpace=wrap;html=1;boundedLbl=1;backgroundOutline=1;size=15;" parent="1" vertex="1">
          <mxGeometry x="910" y="340" width="70" height="50" as="geometry" />
        </mxCell>
        <mxCell id="6hZJDgeNuYgbE0FGKjoH-3" value="&lt;span style=&quot;color: rgb(0, 0, 0); font-family: Helvetica; font-size: 12px; font-style: normal; font-variant-ligatures: normal; font-variant-caps: normal; font-weight: 400; letter-spacing: normal; orphans: 2; text-align: center; text-indent: 0px; text-transform: none; widows: 2; word-spacing: 0px; -webkit-text-stroke-width: 0px; white-space: normal; background-color: rgb(251, 251, 251); text-decoration-thickness: initial; text-decoration-style: initial; text-decoration-color: initial; display: inline !important; float: none;&quot;&gt;Mongo&lt;/span&gt;" style="text;whiteSpace=wrap;html=1;" parent="1" vertex="1">
          <mxGeometry x="920" y="340" width="50" height="20" as="geometry" />
        </mxCell>
        <mxCell id="6hZJDgeNuYgbE0FGKjoH-4" value="&lt;span style=&quot;color: rgb(0, 0, 0); font-family: Helvetica; font-style: normal; font-variant-ligatures: normal; font-variant-caps: normal; font-weight: 400; letter-spacing: normal; orphans: 2; text-align: center; text-indent: 0px; text-transform: none; widows: 2; word-spacing: 0px; -webkit-text-stroke-width: 0px; white-space: normal; background-color: rgb(251, 251, 251); text-decoration-thickness: initial; text-decoration-style: initial; text-decoration-color: initial; float: none; display: inline !important;&quot;&gt;&lt;font style=&quot;font-size: 10px;&quot;&gt;Primary&lt;/font&gt;&lt;/span&gt;" style="text;whiteSpace=wrap;html=1;verticalAlign=middle;" parent="1" vertex="1">
          <mxGeometry x="922" y="368" width="50" height="20" as="geometry" />
        </mxCell>
        <mxCell id="6hZJDgeNuYgbE0FGKjoH-5" value="&lt;span style=&quot;color: rgb(0, 0, 0); font-family: Helvetica; font-size: 12px; font-style: normal; font-variant-ligatures: normal; font-variant-caps: normal; font-weight: 400; letter-spacing: normal; orphans: 2; text-align: center; text-indent: 0px; text-transform: none; widows: 2; word-spacing: 0px; -webkit-text-stroke-width: 0px; white-space: normal; background-color: rgb(251, 251, 251); text-decoration-thickness: initial; text-decoration-style: initial; text-decoration-color: initial; display: inline !important; float: none;&quot;&gt;Shard-1&lt;/span&gt;" style="text;whiteSpace=wrap;html=1;" parent="1" vertex="1">
          <mxGeometry x="900" y="250" width="50" height="20" as="geometry" />
        </mxCell>
        <mxCell id="6hZJDgeNuYgbE0FGKjoH-9" value="" style="shape=cylinder3;whiteSpace=wrap;html=1;boundedLbl=1;backgroundOutline=1;size=15;" parent="1" vertex="1">
          <mxGeometry x="1006" y="307" width="70" height="50" as="geometry" />
        </mxCell>
        <mxCell id="6hZJDgeNuYgbE0FGKjoH-10" value="&lt;span style=&quot;color: rgb(0, 0, 0); font-family: Helvetica; font-size: 12px; font-style: normal; font-variant-ligatures: normal; font-variant-caps: normal; font-weight: 400; letter-spacing: normal; orphans: 2; text-align: center; text-indent: 0px; text-transform: none; widows: 2; word-spacing: 0px; -webkit-text-stroke-width: 0px; white-space: normal; background-color: rgb(251, 251, 251); text-decoration-thickness: initial; text-decoration-style: initial; text-decoration-color: initial; display: inline !important; float: none;&quot;&gt;Mongo&lt;/span&gt;" style="text;whiteSpace=wrap;html=1;" parent="1" vertex="1">
          <mxGeometry x="1016" y="307" width="50" height="20" as="geometry" />
        </mxCell>
        <mxCell id="6hZJDgeNuYgbE0FGKjoH-11" value="&lt;span style=&quot;color: rgb(0, 0, 0); font-family: Helvetica; font-style: normal; font-variant-ligatures: normal; font-variant-caps: normal; font-weight: 400; letter-spacing: normal; orphans: 2; text-align: center; text-indent: 0px; text-transform: none; widows: 2; word-spacing: 0px; -webkit-text-stroke-width: 0px; white-space: normal; background-color: rgb(251, 251, 251); text-decoration-thickness: initial; text-decoration-style: initial; text-decoration-color: initial; float: none; display: inline !important;&quot;&gt;&lt;font style=&quot;font-size: 10px;&quot;&gt;Slave-1&lt;/font&gt;&lt;/span&gt;" style="text;whiteSpace=wrap;html=1;verticalAlign=middle;" parent="1" vertex="1">
          <mxGeometry x="1018" y="335" width="50" height="20" as="geometry" />
        </mxCell>
        <mxCell id="6hZJDgeNuYgbE0FGKjoH-12" value="" style="shape=cylinder3;whiteSpace=wrap;html=1;boundedLbl=1;backgroundOutline=1;size=15;" parent="1" vertex="1">
          <mxGeometry x="1010" y="370" width="70" height="50" as="geometry" />
        </mxCell>
        <mxCell id="6hZJDgeNuYgbE0FGKjoH-13" value="&lt;span style=&quot;color: rgb(0, 0, 0); font-family: Helvetica; font-size: 12px; font-style: normal; font-variant-ligatures: normal; font-variant-caps: normal; font-weight: 400; letter-spacing: normal; orphans: 2; text-align: center; text-indent: 0px; text-transform: none; widows: 2; word-spacing: 0px; -webkit-text-stroke-width: 0px; white-space: normal; background-color: rgb(251, 251, 251); text-decoration-thickness: initial; text-decoration-style: initial; text-decoration-color: initial; display: inline !important; float: none;&quot;&gt;Mongo&lt;/span&gt;" style="text;whiteSpace=wrap;html=1;" parent="1" vertex="1">
          <mxGeometry x="1020" y="370" width="50" height="20" as="geometry" />
        </mxCell>
        <mxCell id="6hZJDgeNuYgbE0FGKjoH-14" value="&lt;span style=&quot;color: rgb(0, 0, 0); font-family: Helvetica; font-style: normal; font-variant-ligatures: normal; font-variant-caps: normal; font-weight: 400; letter-spacing: normal; orphans: 2; text-align: center; text-indent: 0px; text-transform: none; widows: 2; word-spacing: 0px; -webkit-text-stroke-width: 0px; white-space: normal; background-color: rgb(251, 251, 251); text-decoration-thickness: initial; text-decoration-style: initial; text-decoration-color: initial; float: none; display: inline !important;&quot;&gt;&lt;font style=&quot;font-size: 10px;&quot;&gt;Slave-2&lt;/font&gt;&lt;/span&gt;" style="text;whiteSpace=wrap;html=1;verticalAlign=middle;" parent="1" vertex="1">
          <mxGeometry x="1022" y="398" width="50" height="20" as="geometry" />
        </mxCell>
        <mxCell id="6hZJDgeNuYgbE0FGKjoH-15" value="" style="rounded=0;whiteSpace=wrap;html=1;" parent="1" vertex="1">
          <mxGeometry x="880" y="510" width="220" height="210" as="geometry" />
        </mxCell>
        <mxCell id="6hZJDgeNuYgbE0FGKjoH-16" value="" style="shape=cylinder3;whiteSpace=wrap;html=1;boundedLbl=1;backgroundOutline=1;size=15;" parent="1" vertex="1">
          <mxGeometry x="910" y="600" width="70" height="50" as="geometry" />
        </mxCell>
        <mxCell id="6hZJDgeNuYgbE0FGKjoH-17" value="&lt;span style=&quot;color: rgb(0, 0, 0); font-family: Helvetica; font-size: 12px; font-style: normal; font-variant-ligatures: normal; font-variant-caps: normal; font-weight: 400; letter-spacing: normal; orphans: 2; text-align: center; text-indent: 0px; text-transform: none; widows: 2; word-spacing: 0px; -webkit-text-stroke-width: 0px; white-space: normal; background-color: rgb(251, 251, 251); text-decoration-thickness: initial; text-decoration-style: initial; text-decoration-color: initial; display: inline !important; float: none;&quot;&gt;Mongo&lt;/span&gt;" style="text;whiteSpace=wrap;html=1;" parent="1" vertex="1">
          <mxGeometry x="920" y="600" width="50" height="20" as="geometry" />
        </mxCell>
        <mxCell id="6hZJDgeNuYgbE0FGKjoH-18" value="&lt;span style=&quot;color: rgb(0, 0, 0); font-family: Helvetica; font-style: normal; font-variant-ligatures: normal; font-variant-caps: normal; font-weight: 400; letter-spacing: normal; orphans: 2; text-align: center; text-indent: 0px; text-transform: none; widows: 2; word-spacing: 0px; -webkit-text-stroke-width: 0px; white-space: normal; background-color: rgb(251, 251, 251); text-decoration-thickness: initial; text-decoration-style: initial; text-decoration-color: initial; float: none; display: inline !important;&quot;&gt;&lt;font style=&quot;font-size: 10px;&quot;&gt;Primary&lt;/font&gt;&lt;/span&gt;" style="text;whiteSpace=wrap;html=1;verticalAlign=middle;" parent="1" vertex="1">
          <mxGeometry x="922" y="628" width="50" height="20" as="geometry" />
        </mxCell>
        <mxCell id="6hZJDgeNuYgbE0FGKjoH-19" value="&lt;span style=&quot;color: rgb(0, 0, 0); font-family: Helvetica; font-size: 12px; font-style: normal; font-variant-ligatures: normal; font-variant-caps: normal; font-weight: 400; letter-spacing: normal; orphans: 2; text-align: center; text-indent: 0px; text-transform: none; widows: 2; word-spacing: 0px; -webkit-text-stroke-width: 0px; white-space: normal; background-color: rgb(251, 251, 251); text-decoration-thickness: initial; text-decoration-style: initial; text-decoration-color: initial; display: inline !important; float: none;&quot;&gt;Shard-2&lt;/span&gt;&lt;div&gt;&lt;span style=&quot;color: rgb(0, 0, 0); font-family: Helvetica; font-size: 12px; font-style: normal; font-variant-ligatures: normal; font-variant-caps: normal; font-weight: 400; letter-spacing: normal; orphans: 2; text-align: center; text-indent: 0px; text-transform: none; widows: 2; word-spacing: 0px; -webkit-text-stroke-width: 0px; white-space: normal; background-color: rgb(251, 251, 251); text-decoration-thickness: initial; text-decoration-style: initial; text-decoration-color: initial; display: inline !important; float: none;&quot;&gt;&lt;br&gt;&lt;/span&gt;&lt;/div&gt;" style="text;whiteSpace=wrap;html=1;" parent="1" vertex="1">
          <mxGeometry x="900" y="510" width="50" height="20" as="geometry" />
        </mxCell>
        <mxCell id="6hZJDgeNuYgbE0FGKjoH-20" value="" style="shape=cylinder3;whiteSpace=wrap;html=1;boundedLbl=1;backgroundOutline=1;size=15;" parent="1" vertex="1">
          <mxGeometry x="1006" y="567" width="70" height="50" as="geometry" />
        </mxCell>
        <mxCell id="6hZJDgeNuYgbE0FGKjoH-21" value="&lt;span style=&quot;color: rgb(0, 0, 0); font-family: Helvetica; font-size: 12px; font-style: normal; font-variant-ligatures: normal; font-variant-caps: normal; font-weight: 400; letter-spacing: normal; orphans: 2; text-align: center; text-indent: 0px; text-transform: none; widows: 2; word-spacing: 0px; -webkit-text-stroke-width: 0px; white-space: normal; background-color: rgb(251, 251, 251); text-decoration-thickness: initial; text-decoration-style: initial; text-decoration-color: initial; display: inline !important; float: none;&quot;&gt;Mongo&lt;/span&gt;" style="text;whiteSpace=wrap;html=1;" parent="1" vertex="1">
          <mxGeometry x="1016" y="567" width="50" height="20" as="geometry" />
        </mxCell>
        <mxCell id="6hZJDgeNuYgbE0FGKjoH-22" value="&lt;span style=&quot;color: rgb(0, 0, 0); font-family: Helvetica; font-style: normal; font-variant-ligatures: normal; font-variant-caps: normal; font-weight: 400; letter-spacing: normal; orphans: 2; text-align: center; text-indent: 0px; text-transform: none; widows: 2; word-spacing: 0px; -webkit-text-stroke-width: 0px; white-space: normal; background-color: rgb(251, 251, 251); text-decoration-thickness: initial; text-decoration-style: initial; text-decoration-color: initial; float: none; display: inline !important;&quot;&gt;&lt;font style=&quot;font-size: 10px;&quot;&gt;Slave-1&lt;/font&gt;&lt;/span&gt;" style="text;whiteSpace=wrap;html=1;verticalAlign=middle;" parent="1" vertex="1">
          <mxGeometry x="1018" y="595" width="50" height="20" as="geometry" />
        </mxCell>
        <mxCell id="6hZJDgeNuYgbE0FGKjoH-23" value="" style="shape=cylinder3;whiteSpace=wrap;html=1;boundedLbl=1;backgroundOutline=1;size=15;" parent="1" vertex="1">
          <mxGeometry x="1010" y="630" width="70" height="50" as="geometry" />
        </mxCell>
        <mxCell id="6hZJDgeNuYgbE0FGKjoH-24" value="&lt;span style=&quot;color: rgb(0, 0, 0); font-family: Helvetica; font-size: 12px; font-style: normal; font-variant-ligatures: normal; font-variant-caps: normal; font-weight: 400; letter-spacing: normal; orphans: 2; text-align: center; text-indent: 0px; text-transform: none; widows: 2; word-spacing: 0px; -webkit-text-stroke-width: 0px; white-space: normal; background-color: rgb(251, 251, 251); text-decoration-thickness: initial; text-decoration-style: initial; text-decoration-color: initial; display: inline !important; float: none;&quot;&gt;Mongo&lt;/span&gt;" style="text;whiteSpace=wrap;html=1;" parent="1" vertex="1">
          <mxGeometry x="1020" y="630" width="50" height="20" as="geometry" />
        </mxCell>
        <mxCell id="6hZJDgeNuYgbE0FGKjoH-25" value="&lt;span style=&quot;color: rgb(0, 0, 0); font-family: Helvetica; font-style: normal; font-variant-ligatures: normal; font-variant-caps: normal; font-weight: 400; letter-spacing: normal; orphans: 2; text-align: center; text-indent: 0px; text-transform: none; widows: 2; word-spacing: 0px; -webkit-text-stroke-width: 0px; white-space: normal; background-color: rgb(251, 251, 251); text-decoration-thickness: initial; text-decoration-style: initial; text-decoration-color: initial; float: none; display: inline !important;&quot;&gt;&lt;font style=&quot;font-size: 10px;&quot;&gt;Slave-2&lt;/font&gt;&lt;/span&gt;" style="text;whiteSpace=wrap;html=1;verticalAlign=middle;" parent="1" vertex="1">
          <mxGeometry x="1022" y="658" width="50" height="20" as="geometry" />
        </mxCell>
        <mxCell id="6hZJDgeNuYgbE0FGKjoH-26" value="" style="verticalLabelPosition=bottom;verticalAlign=top;html=1;shape=mxgraph.basic.rect;fillColor2=none;strokeWidth=1;size=20;indent=5;" parent="1" vertex="1">
          <mxGeometry x="600" y="320" width="100" height="42" as="geometry" />
        </mxCell>
        <mxCell id="6hZJDgeNuYgbE0FGKjoH-28" value="&lt;span style=&quot;color: rgb(0, 0, 0); font-family: Helvetica; font-size: 12px; font-style: normal; font-variant-ligatures: normal; font-variant-caps: normal; font-weight: 400; letter-spacing: normal; orphans: 2; text-align: center; text-indent: 0px; text-transform: none; widows: 2; word-spacing: 0px; -webkit-text-stroke-width: 0px; white-space: normal; background-color: rgb(251, 251, 251); text-decoration-thickness: initial; text-decoration-style: initial; text-decoration-color: initial; display: inline !important; float: none;&quot;&gt;config srv&lt;/span&gt;" style="text;whiteSpace=wrap;html=1;" parent="1" vertex="1">
          <mxGeometry x="620" y="325" width="80" height="20" as="geometry" />
        </mxCell>
        <mxCell id="6hZJDgeNuYgbE0FGKjoH-30" value="&lt;div style=&quot;text-align: center;&quot;&gt;&lt;span style=&quot;background-color: initial;&quot;&gt;MongoDB cluster&lt;/span&gt;&lt;/div&gt;" style="text;whiteSpace=wrap;html=1;" parent="1" vertex="1">
          <mxGeometry x="842" y="190" width="158" height="20" as="geometry" />
        </mxCell>
        <mxCell id="6hZJDgeNuYgbE0FGKjoH-32" style="edgeStyle=orthogonalEdgeStyle;rounded=0;orthogonalLoop=1;jettySize=auto;html=1;entryX=1.009;entryY=0.532;entryDx=0;entryDy=0;entryPerimeter=0;" parent="1" target="6hZJDgeNuYgbE0FGKjoH-42" edge="1">
          <mxGeometry relative="1" as="geometry">
            <mxPoint x="640" y="504" as="sourcePoint" />
            <mxPoint x="625" y="429" as="targetPoint" />
          </mxGeometry>
        </mxCell>
        <mxCell id="6hZJDgeNuYgbE0FGKjoH-35" style="edgeStyle=orthogonalEdgeStyle;rounded=0;orthogonalLoop=1;jettySize=auto;html=1;exitX=0.5;exitY=1;exitDx=0;exitDy=0;" parent="1" source="PJOXyjg3iWPA3-rZ3mkH-3" edge="1">
          <mxGeometry relative="1" as="geometry">
            <mxPoint x="572" y="534" as="sourcePoint" />
            <mxPoint x="820" y="519" as="targetPoint" />
          </mxGeometry>
        </mxCell>
        <mxCell id="6hZJDgeNuYgbE0FGKjoH-36" value="" style="endArrow=classic;html=1;rounded=0;exitX=0.395;exitY=-0.012;exitDx=0;exitDy=0;exitPerimeter=0;entryX=0.005;entryY=0.093;entryDx=0;entryDy=0;entryPerimeter=0;" parent="1" source="6hZJDgeNuYgbE0FGKjoH-26" target="6hZJDgeNuYgbE0FGKjoH-29" edge="1">
          <mxGeometry width="50" height="50" relative="1" as="geometry">
            <mxPoint x="790" y="450" as="sourcePoint" />
            <mxPoint x="840" y="400" as="targetPoint" />
            <Array as="points">
              <mxPoint x="640" y="250" />
            </Array>
          </mxGeometry>
        </mxCell>
        <mxCell id="6hZJDgeNuYgbE0FGKjoH-37" value="" style="endArrow=classic;html=1;rounded=0;exitX=1;exitY=0.5;exitDx=0;exitDy=0;" parent="1" source="PJOXyjg3iWPA3-rZ3mkH-3" edge="1">
          <mxGeometry width="50" height="50" relative="1" as="geometry">
            <mxPoint x="790" y="450" as="sourcePoint" />
            <mxPoint x="669" y="370" as="targetPoint" />
          </mxGeometry>
        </mxCell>
        <mxCell id="6hZJDgeNuYgbE0FGKjoH-38" value="" style="endArrow=classic;html=1;rounded=0;entryX=0.75;entryY=1;entryDx=0;entryDy=0;" parent="1" target="PJOXyjg3iWPA3-rZ3mkH-3" edge="1">
          <mxGeometry width="50" height="50" relative="1" as="geometry">
            <mxPoint x="828" y="494" as="sourcePoint" />
            <mxPoint x="840" y="400" as="targetPoint" />
          </mxGeometry>
        </mxCell>
        <mxCell id="6hZJDgeNuYgbE0FGKjoH-46" value="&lt;span style=&quot;color: rgb(0, 0, 0); font-family: Helvetica; font-size: 12px; font-style: normal; font-variant-ligatures: normal; font-variant-caps: normal; font-weight: 400; letter-spacing: normal; orphans: 2; text-align: center; text-indent: 0px; text-transform: none; widows: 2; word-spacing: 0px; -webkit-text-stroke-width: 0px; white-space: normal; background-color: rgb(251, 251, 251); text-decoration-thickness: initial; text-decoration-style: initial; text-decoration-color: initial; display: inline !important; float: none;&quot;&gt;Redis&lt;br&gt;cluster&lt;/span&gt;" style="text;whiteSpace=wrap;html=1;" parent="1" vertex="1">
          <mxGeometry x="486" y="474" width="80" height="20" as="geometry" />
        </mxCell>
        <mxCell id="K4MH_9X3WQAVXKmxXlGv-18" style="edgeStyle=orthogonalEdgeStyle;rounded=0;orthogonalLoop=1;jettySize=auto;html=1;" edge="1" parent="1" source="K4MH_9X3WQAVXKmxXlGv-1" target="K4MH_9X3WQAVXKmxXlGv-8">
          <mxGeometry relative="1" as="geometry" />
        </mxCell>
        <mxCell id="K4MH_9X3WQAVXKmxXlGv-21" style="edgeStyle=orthogonalEdgeStyle;rounded=0;orthogonalLoop=1;jettySize=auto;html=1;entryX=0.32;entryY=-0.028;entryDx=0;entryDy=0;entryPerimeter=0;" edge="1" parent="1" source="K4MH_9X3WQAVXKmxXlGv-1" target="K4MH_9X3WQAVXKmxXlGv-20">
          <mxGeometry relative="1" as="geometry">
            <mxPoint x="-290" y="230" as="targetPoint" />
            <Array as="points">
              <mxPoint x="-320" y="200" />
              <mxPoint x="-142" y="200" />
            </Array>
          </mxGeometry>
        </mxCell>
        <mxCell id="K4MH_9X3WQAVXKmxXlGv-1" value="client" style="rounded=1;whiteSpace=wrap;html=1;" vertex="1" parent="1">
          <mxGeometry x="-350" y="470" width="120" height="60" as="geometry" />
        </mxCell>
        <mxCell id="K4MH_9X3WQAVXKmxXlGv-3" style="edgeStyle=orthogonalEdgeStyle;rounded=0;orthogonalLoop=1;jettySize=auto;html=1;entryX=0.012;entryY=0.374;entryDx=0;entryDy=0;entryPerimeter=0;" edge="1" parent="1" source="K4MH_9X3WQAVXKmxXlGv-2" target="6hZJDgeNuYgbE0FGKjoH-42">
          <mxGeometry relative="1" as="geometry" />
        </mxCell>
        <mxCell id="K4MH_9X3WQAVXKmxXlGv-4" style="edgeStyle=orthogonalEdgeStyle;rounded=0;orthogonalLoop=1;jettySize=auto;html=1;entryX=0.99;entryY=0.535;entryDx=0;entryDy=0;entryPerimeter=0;" edge="1" parent="1" source="6hZJDgeNuYgbE0FGKjoH-42" target="K4MH_9X3WQAVXKmxXlGv-2">
          <mxGeometry relative="1" as="geometry" />
        </mxCell>
        <mxCell id="K4MH_9X3WQAVXKmxXlGv-5" value="pymongo-api" style="rounded=1;whiteSpace=wrap;html=1;" vertex="1" parent="1">
          <mxGeometry x="285" y="470" width="120" height="60" as="geometry" />
        </mxCell>
        <mxCell id="K4MH_9X3WQAVXKmxXlGv-6" value="pymongo-api" style="rounded=1;whiteSpace=wrap;html=1;" vertex="1" parent="1">
          <mxGeometry x="285" y="555" width="120" height="60" as="geometry" />
        </mxCell>
        <mxCell id="K4MH_9X3WQAVXKmxXlGv-16" style="edgeStyle=orthogonalEdgeStyle;rounded=0;orthogonalLoop=1;jettySize=auto;html=1;entryX=0.5;entryY=0;entryDx=0;entryDy=0;" edge="1" parent="1" target="K4MH_9X3WQAVXKmxXlGv-13">
          <mxGeometry relative="1" as="geometry">
            <mxPoint x="340" y="220" as="targetPoint" />
            <mxPoint x="339.75" y="305" as="sourcePoint" />
            <Array as="points">
              <mxPoint x="340" y="210" />
              <mxPoint x="70" y="210" />
            </Array>
          </mxGeometry>
        </mxCell>
        <mxCell id="K4MH_9X3WQAVXKmxXlGv-7" value="&lt;span style=&quot;color: rgb(0, 0, 0); font-family: Helvetica; font-size: 12px; font-style: normal; font-variant-ligatures: normal; font-variant-caps: normal; font-weight: 400; letter-spacing: normal; orphans: 2; text-align: center; text-indent: 0px; text-transform: none; widows: 2; word-spacing: 0px; -webkit-text-stroke-width: 0px; white-space: normal; background-color: rgb(251, 251, 251); text-decoration-thickness: initial; text-decoration-style: initial; text-decoration-color: initial; display: inline !important; float: none;&quot;&gt;Apps&lt;br&gt;cluster&lt;/span&gt;" style="text;whiteSpace=wrap;html=1;" vertex="1" parent="1">
          <mxGeometry x="300" y="315" width="80" height="20" as="geometry" />
        </mxCell>
        <mxCell id="K4MH_9X3WQAVXKmxXlGv-8" value="API&lt;br&gt;gateway" style="rounded=1;whiteSpace=wrap;html=1;" vertex="1" parent="1">
          <mxGeometry x="10" y="470" width="120" height="60" as="geometry" />
        </mxCell>
        <mxCell id="K4MH_9X3WQAVXKmxXlGv-9" style="edgeStyle=orthogonalEdgeStyle;rounded=0;orthogonalLoop=1;jettySize=auto;html=1;exitX=1;exitY=0.5;exitDx=0;exitDy=0;entryX=0.017;entryY=0.535;entryDx=0;entryDy=0;entryPerimeter=0;" edge="1" parent="1" source="K4MH_9X3WQAVXKmxXlGv-8" target="K4MH_9X3WQAVXKmxXlGv-2">
          <mxGeometry relative="1" as="geometry" />
        </mxCell>
        <mxCell id="K4MH_9X3WQAVXKmxXlGv-14" style="edgeStyle=orthogonalEdgeStyle;rounded=0;orthogonalLoop=1;jettySize=auto;html=1;" edge="1" parent="1" source="K4MH_9X3WQAVXKmxXlGv-13" target="K4MH_9X3WQAVXKmxXlGv-8">
          <mxGeometry relative="1" as="geometry" />
        </mxCell>
        <mxCell id="K4MH_9X3WQAVXKmxXlGv-13" value="Consul&lt;div&gt;&lt;br&gt;&lt;/div&gt;" style="rounded=1;whiteSpace=wrap;html=1;" vertex="1" parent="1">
          <mxGeometry x="10" y="295" width="120" height="60" as="geometry" />
        </mxCell>
        <mxCell id="K4MH_9X3WQAVXKmxXlGv-17" value="CDN" style="rounded=1;whiteSpace=wrap;html=1;" vertex="1" parent="1">
          <mxGeometry x="-210" y="345" width="120" height="60" as="geometry" />
        </mxCell>
        <mxCell id="K4MH_9X3WQAVXKmxXlGv-19" style="edgeStyle=orthogonalEdgeStyle;rounded=0;orthogonalLoop=1;jettySize=auto;html=1;exitX=0;exitY=0.75;exitDx=0;exitDy=0;entryX=0.978;entryY=0.863;entryDx=0;entryDy=0;entryPerimeter=0;" edge="1" parent="1" source="K4MH_9X3WQAVXKmxXlGv-8" target="K4MH_9X3WQAVXKmxXlGv-1">
          <mxGeometry relative="1" as="geometry" />
        </mxCell>
        <mxCell id="K4MH_9X3WQAVXKmxXlGv-20" value="CDN" style="rounded=1;whiteSpace=wrap;html=1;" vertex="1" parent="1">
          <mxGeometry x="-180" y="297" width="120" height="60" as="geometry" />
        </mxCell>
        <mxCell id="K4MH_9X3WQAVXKmxXlGv-22" style="edgeStyle=orthogonalEdgeStyle;rounded=0;orthogonalLoop=1;jettySize=auto;html=1;entryX=0.71;entryY=-0.008;entryDx=0;entryDy=0;entryPerimeter=0;" edge="1" parent="1" source="K4MH_9X3WQAVXKmxXlGv-17" target="K4MH_9X3WQAVXKmxXlGv-1">
          <mxGeometry relative="1" as="geometry" />
        </mxCell>
      </root>
    </mxGraphModel>
  </diagram>
</mxfile>
